Coordinates
version=1
nRows=11
nColumns=63
inDegrees=yes

Units are S.I. units (second, meters, Newtons, ...)
If the header above contains a line with 'inDegrees', this indicates whether rotational values are in degrees (yes) or radians (no).

endheader
time	pelvis_tilt	pelvis_list	pelvis_rotation	pelvis_tx	pelvis_ty	pelvis_tz	hip_flexion_r	hip_adduction_r	hip_rotation_r	knee_angle_r	knee_angle_r_beta	ankle_angle_r	subtalar_angle_r	mtp_angle_r	hip_flexion_l	hip_adduction_l	hip_rotation_l	knee_angle_l	knee_angle_l_beta	ankle_angle_l	subtalar_angle_l	mtp_angle_l	L5_S1_Flex_Ext	L5_S1_Lat_Bending	L5_S1_axial_rotation	L4_L5_Flex_Ext	L4_L5_Lat_Bending	L4_L5_axial_rotation	L3_L4_Flex_Ext	L3_L4_Lat_Bending	L3_L4_axial_rotation	L2_L3_Flex_Ext	L2_L3_Lat_Bending	L2_L3_axial_rotation	L1_L2_Flex_Ext	L1_L2_Lat_Bending	L1_L2_axial_rotation	L1_T12_Flex_Ext	L1_T12_Lat_Bending	L1_T12_axial_rotation	Abs_r3	Abs_r2	Abs_r1	Abs_t1	Abs_t2	neck_flexion	neck_bending	neck_rotation	arm_flex_r	arm_add_r	arm_rot_r	elbow_flex_r	pro_sup_r	wrist_flex_r	wrist_dev_r	arm_flex_l	arm_add_l	arm_rot_l	elbow_flex_l	pro_sup_l	wrist_flex_l	wrist_dev_l
      0.00000000	     -1.66591355	     -4.51063427	     92.73855176	     -0.10521911	      0.81481146	      0.63407377	      1.03780398	     -5.35243156	    -17.81811693	     13.28263193	      0.23182566	     30.92062484	     14.14308736	      0.00000000	      2.29368709	      1.85925243	     -7.50673721	     10.09670857	      0.17622081	     30.86372446	     14.62341240	      0.00000000	      0.08857780	     -0.28468535	      0.51375068	      0.16449783	     -0.37863152	      0.54586010	      0.14552447	     -0.69218396	      0.54586010	      0.10123557	     -0.69218396	      0.44953185	      0.08225335	     -0.58053037	      0.41742243	      0.05061336	     -0.44097761	      0.38531301	      0.63270237	     -3.22041762	      2.85732716	      0.00000000	      0.00000000	     17.50788799	     -1.63371023	     -4.72687012	      6.46778252	    -13.95127970	     43.34012350	     60.19955112	     86.42348157	     13.32301468	     26.41421418	     24.14665333	    -15.55007973	     81.72955176	     56.05007317	     66.84895113	      3.67536641	      6.02935348
      0.01694915	     -1.66330940	     -4.71149386	     90.82752904	     -0.10271641	      0.81414825	      0.63536208	      2.18265305	     -5.41914793	    -16.25420006	     14.13191669	      0.24664848	     31.38042216	     14.37679199	      0.00000000	      2.44154849	      1.79250540	     -8.80303837	      9.98342869	      0.17424370	     31.01827728	     13.90279298	      0.00000000	      0.10017230	     -0.27689762	      0.88742655	      0.18602997	     -0.36827384	      0.94289071	      0.16457306	     -0.67324888	      0.94289071	      0.11448692	     -0.67324888	      0.77649823	      0.09301999	     -0.56464963	      0.72103407	      0.05723845	     -0.42891441	      0.66556991	      0.71552069	     -3.13232127	      4.93560023	      0.00000000	      0.00000000	     17.70627637	     -1.90944036	     -4.69791059	      6.01540268	    -14.05604035	     41.87531687	     60.10385554	     83.55348116	     15.05360470	     26.13299204	     24.48624388	    -15.48515673	     81.31249727	     56.10737187	     69.38880745	      3.30229557	      4.63325961
      0.03389831	     -1.56120845	     -4.83169056	     89.75581481	     -0.10117715	      0.81359558	      0.63678068	      3.08845977	     -5.34295630	    -15.31855947	     15.01155933	      0.26200114	     31.81094587	     14.27764627	      0.00000000	      2.55564888	      1.62841842	     -9.46547103	      9.87910583	      0.17242292	     31.16620561	     13.65311536	      0.00000000	      0.09750543	     -0.26094034	      1.05696127	      0.18107733	     -0.34705065	      1.12302135	      0.16019166	     -0.63445035	      1.12302135	      0.11143895	     -0.63445035	      0.92484111	      0.09054354	     -0.53210954	      0.85878103	      0.05571460	     -0.40419659	      0.79272095	      0.69647150	     -2.95180933	      5.87850147	      0.00000000	      0.00000000	     17.99239141	     -2.32145963	     -4.92283708	      5.96683256	    -14.20490904	     41.10316378	     60.23267383	     82.63299412	     15.49575227	     26.26397800	     24.92778723	    -15.36015450	     80.86675634	     56.17546089	     70.20706785	      3.56826170	      4.54556507
      0.05084746	     -1.70404263	     -4.92864726	     87.84986319	     -0.09865202	      0.81319278	      0.63788524	      3.90747746	     -5.23023448	    -12.21643014	     15.42505198	      0.26921794	     31.83722294	     12.67253070	      0.00000000	      2.54414579	      1.64176950	    -11.71413118	      9.72420171	      0.16971934	     31.28852166	     14.18040068	      0.00000000	      0.10871784	     -0.27889481	      1.44647318	      0.20189990	     -0.37093010	      1.53687775	      0.17861254	     -0.67810485	      1.53687775	      0.12425362	     -0.67810485	      1.26566403	      0.10095538	     -0.56872231	      1.17525946	      0.06212137	     -0.43200807	      1.08485488	      0.77656064	     -3.15491392	      8.04484986	      0.00000000	      0.00000000	     17.89053428	     -3.02012469	     -6.20896198	      5.56447824	    -14.21385200	     39.58359173	     60.52971087	     81.93724831	     15.53076086	     27.27399816	     25.24040304	    -14.73286523	     79.74575314	     55.64632843	     71.20145158	      6.08062462	      6.08168540
      0.06779661	     -1.70948140	     -5.00736042	     87.34229837	     -0.09791075	      0.81296481	      0.63911317	      4.40744085	     -5.22731705	    -11.83805743	     15.85713821	      0.27675927	     32.05832351	     12.81460224	      0.00000000	      2.68349731	      1.60796975	    -12.04190254	      9.73378901	      0.16988667	     31.29750982	     14.05762293	      0.00000000	      0.11528193	     -0.27663204	      1.47682727	      0.21409008	     -0.36792062	      1.56912897	      0.18939669	     -0.67260315	      1.56912897	      0.13175572	     -0.67260315	      1.29222386	      0.10705080	     -0.56410806	      1.19992215	      0.06587210	     -0.42850304	      1.10762045	      0.82344733	     -3.12931701	      8.21367021	      0.00000000	      0.00000000	     17.95599453	     -3.35385565	     -6.47745478	      5.79249227	    -14.20803384	     39.09992705	     60.42693666	     82.35045623	     15.18458875	     27.38908023	     25.62381076	    -14.24542077	     79.34873361	     55.20253065	     70.44888842	      6.37592958	      6.91412533
      0.08474576	     -1.86635146	     -5.10148487	     86.11583443	     -0.09630600	      0.81231039	      0.64000446	      4.99565451	     -5.22637296	    -10.24429248	     16.21069250	      0.28292996	     32.24298578	     12.23622884	      0.00000000	      2.77415317	      1.65954811	    -13.62728542	      9.75404854	      0.17024026	     31.55458912	     14.59065199	      0.00000000	      0.13014014	     -0.30265401	      1.74777298	      0.24168325	     -0.40252983	      1.85700879	      0.21380723	     -0.73587295	      1.85700879	      0.14873716	     -0.73587295	      1.52930136	      0.12084813	     -0.61717205	      1.42006555	      0.07436207	     -0.46881105	      1.31082974	      0.92957798	     -3.42368264	      9.72058898	      0.00000000	      0.00000000	     17.93203209	     -4.16879034	     -8.49737340	      5.20937941	    -14.21420777	     37.17212529	     61.09345028	     85.19252675	     14.92106747	     27.54044552	     26.64920336	    -13.57969412	     80.39081409	     55.04266357	     62.11777454	      7.54037468	     11.12003881
      0.10169492	     -1.91665652	     -5.11324602	     85.91267133	     -0.09608010	      0.81191223	      0.64049414	      5.08508455	     -5.24498783	    -10.17618097	     16.17572013	      0.28231958	     32.37504856	     12.26984228	      0.00000000	      2.78866047	      1.71343721	    -13.66055701	      9.71285262	      0.16952126	     31.65199119	     14.57470697	      0.00000000	      0.14261273	     -0.30380876	      1.70898142	      0.26484610	     -0.40406565	      1.81579276	      0.23429845	     -0.73868062	      1.81579276	      0.16299209	     -0.73868062	      1.49535874	      0.13243018	     -0.61952683	      1.38854740	      0.08148891	     -0.47059977	      1.28173606	      1.01866845	     -3.43674547	      9.50484196	      0.00000000	      0.00000000	     17.98085081	     -4.13608040	     -8.56515366	      5.42905704	    -14.34921994	     36.91918144	     60.97815168	     85.26568052	     14.75950746	     27.55794111	     26.96123150	    -13.29662631	     80.18825689	     54.98237355	     62.00519125	      7.47798116	     11.16889714
      0.11864407	     -2.12416480	     -5.22164725	     85.28513318	     -0.09501444	      0.81133407	      0.64144636	      5.57828047	     -5.41367085	     -9.61189326	     16.58934857	      0.28953875	     32.59212486	     12.36911734	      0.00000000	      2.97156325	      1.83866139	    -14.59144294	      9.78366692	      0.17075720	     31.75080483	     14.79192080	      0.00000000	      0.14357019	     -0.34378124	      1.91160671	      0.26662419	     -0.45722905	      2.03108213	      0.23587146	     -0.83586972	      2.03108213	      0.16408637	     -0.83586972	      1.67265587	      0.13331928	     -0.70103871	      1.55318045	      0.08203601	     -0.53251715	      1.43370503	      1.02550749	     -3.88892218	     10.63178305	      0.00000000	      0.00000000	     18.86894317	     -4.31382909	    -10.32997777	      4.34890504	    -14.12867924	     34.75371925	     61.80121213	     85.33746817	     10.32851331	     28.33685377	     28.11950900	    -12.59473885	     82.24055810	     55.17399937	     52.50848052	      4.28979849	     14.04249120
      0.13559322	     -2.30320874	     -5.32128832	     85.07510574	     -0.09450740	      0.81070407	      0.64183396	      5.77114881	     -5.59096536	     -9.69050310	     16.63561409	      0.29034624	     32.81278459	     12.76169496	      0.00000000	      3.12306375	      1.97288887	    -14.70865680	      9.84304722	      0.17179358	     31.89492239	     14.78589591	      0.00000000	      0.15339801	     -0.37031798	      1.98079537	      0.28487544	     -0.49252291	      2.10459508	      0.25201758	     -0.90039113	      2.10459508	      0.17531858	     -0.90039113	      1.73319595	      0.14244539	     -0.75515242	      1.60939624	      0.08765162	     -0.57362255	      1.48559653	      1.09570661	     -4.18911102	     11.01658962	      0.00000000	      0.00000000	     19.70745839	     -3.96025661	    -10.67160410	      3.36641459	    -13.82385885	     32.94292435	     62.15296730	     80.80283956	      5.74377029	     28.86173168	     28.75867580	    -12.20051637	     83.40262634	     55.60353514	     48.75256338	      0.98142136	     14.12086698
      0.15254237	     -2.46988888	     -5.43330987	     85.03306704	     -0.09424941	      0.81000850	      0.64214654	      5.91138633	     -5.75754241	     -9.87974088	     16.60527181	      0.28981667	     33.06966885	     13.14743698	      0.00000000	      3.30124235	      2.11428039	    -14.74599060	      9.90652832	      0.17290154	     31.96353201	     14.71252225	      0.00000000	      0.16026689	     -0.38782442	      2.02643191	      0.29763164	     -0.51580648	      2.15308391	      0.26330247	     -0.94295630	      2.15308391	      0.18316903	     -0.94295630	      1.77312792	      0.14882383	     -0.79085156	      1.64647593	      0.09157650	     -0.60074003	      1.51982394	      1.14477037	     -4.38714741	     11.27040637	      0.00000000	      0.00000000	     20.59098103	     -3.41136755	    -10.38029105	      1.56449060	    -13.33281536	     33.41622967	     65.70749165	      3.87812136	    -28.19504697	     19.43559908	     29.32993087	    -11.74400782	     84.52170258	     55.69986247	     45.75290727	     -1.00666273	     13.13558544
      0.16949153	     -2.54661702	     -5.48107652	     85.09202793	     -0.09420591	      0.80941799	      0.64238110	      5.92379743	     -5.84324636	    -10.13122514	     16.50253886	      0.28802364	     33.34435325	     13.55756540	      0.00000000	      3.42331513	      2.16547868	    -14.77097905	     10.00503238	      0.17462076	     32.03858832	     14.73436447	      0.00000000	      0.16867610	     -0.39372131	      1.95525851	      0.31324839	     -0.52364934	      2.07746217	      0.27711797	     -0.95729399	      2.07746217	      0.19277992	     -0.95729399	      1.71085120	      0.15663263	     -0.80287650	      1.58864754	      0.09638152	     -0.60987431	      1.46644388	      1.20483652	     -4.45385421	     10.87456125	      0.00000000	      0.00000000	     21.25556808	     -2.67546914	     -9.47731757	      1.30233317	    -13.32243871	     32.81593780	     65.78165349	      4.03294732	    -26.46479676	     17.51312199	     29.06560522	    -11.66729945	     83.91310937	     55.98957952	     45.59922311	     -2.73082705	     12.98725107
